<?xml version="1.0" encoding="UTF-8" standalone="no"?>
<!DOCTYPE svg PUBLIC "-//W3C//DTD SVG 1.1//EN" "http://www.w3.org/Graphics/SVG/1.1/DTD/svg11.dtd">
<svg width="100%" height="100%" viewBox="0 0 600 241" version="1.1" xmlns="http://www.w3.org/2000/svg" xmlns:xlink="http://www.w3.org/1999/xlink" xml:space="preserve" xmlns:serif="http://www.serif.com/" style="fill-rule:evenodd;clip-rule:evenodd;stroke-linejoin:round;stroke-miterlimit:2;">
    <g transform="matrix(0.166363,0,0,0.187359,386.902,77.7118)">
        <g transform="matrix(1,0,0,1,-400,-400)">
            <g transform="matrix(20.7442,0,0,17.4102,-3841.62,-1169.24)">
                <path d="M191.673,112.76C191.986,112.647 192.297,112.502 192.604,112.314L205.277,104.509L221.277,94.656C224.545,92.644 224.545,87.613 221.277,85.6L205.277,75.747L192.604,67.942C188.763,65.577 184.186,69.435 185.456,73.968L189.565,88.631C189.608,88.784 189.642,88.938 189.671,89.094L194.321,106.589C195.02,109.222 193.724,111.732 191.673,112.76Z" style="fill:rgb(242,95,30);fill-rule:nonzero;"/>
            </g>
            <g transform="matrix(20.7442,0,0,17.4102,-3841.62,-1169.24)">
                <path d="M194.321,106.589L189.671,89.094C189.83,89.932 189.796,90.802 189.565,91.625L185.456,106.288C184.288,110.459 188.07,114.055 191.673,112.76C193.724,111.732 195.02,109.222 194.321,106.589Z" style="fill:rgb(199,71,14);fill-rule:nonzero;"/>
            </g>
            <g transform="matrix(1.60563,0,0,1.60563,183.813,511.115)">
                <text x="0px" y="0px" style="font-family:'Futura-Medium', 'Futura', sans-serif;font-weight:500;font-size:144px;fill-opacity:0.15;">WM</text>
            </g>
            <g transform="matrix(1.60563,0,0,1.60563,173.813,503.115)">
                <text x="0px" y="0px" style="font-family:'Futura-Medium', 'Futura', sans-serif;font-weight:500;font-size:144px;fill:white;">WM</text>
            </g>
            <g transform="matrix(1,0,0,1,2.46519,108.773)">
                <g transform="matrix(1,0,0,1,135.914,204.778)">
                    <text x="0px" y="0px" style="font-family:'Futura-Medium', 'Futura', sans-serif;font-weight:500;font-size:231.211px;fill-opacity:0.6;">v</text>
                </g>
                <g transform="matrix(1,0,0,1,248.132,204.778)">
                    <text x="0px" y="0px" style="font-family:'Futura-Medium', 'Futura', sans-serif;font-weight:500;font-size:231.211px;fill-opacity:0.6;">e</text>
                </g>
            </g>
        </g>
    </g>
    <g transform="matrix(1.69711,0,0,1.9113,16.6859,-24.9535)">
        <path d="M108.366,53.778L123.721,39.86L162.964,39.86L162.964,39.36L123.529,39.36L108.03,53.408L108.366,53.778Z" style="fill:rgb(30,15,0);fill-rule:nonzero;"/>
        <path d="M163.969,39.61C163.969,40.165 163.519,40.615 162.964,40.615C162.408,40.615 161.959,40.165 161.959,39.61C161.959,39.055 162.408,38.605 162.964,38.605C163.519,38.605 163.969,39.055 163.969,39.61Z" style="fill-rule:nonzero;"/>
        <path d="M109.203,53.593C109.203,54.149 108.753,54.599 108.198,54.599C107.643,54.599 107.193,54.149 107.193,53.593C107.193,53.039 107.643,52.588 108.198,52.588C108.753,52.588 109.203,53.039 109.203,53.593Z" style="fill-rule:nonzero;"/>
    </g>
    <g transform="matrix(-1.69711,0.00237193,-0.00210612,-1.9113,500.947,272.789)">
        <path d="M108.366,53.778L123.721,39.86L162.964,39.86L162.964,39.36L123.529,39.36L108.03,53.408L108.366,53.778Z" style="fill:rgb(30,15,0);fill-rule:nonzero;"/>
        <path d="M163.969,39.61C163.969,40.165 163.519,40.615 162.964,40.615C162.408,40.615 161.959,40.165 161.959,39.61C161.959,39.055 162.408,38.605 162.964,38.605C163.519,38.605 163.969,39.055 163.969,39.61Z" style="fill-rule:nonzero;"/>
        <path d="M109.203,53.593C109.203,54.149 108.753,54.599 108.198,54.599C107.643,54.599 107.193,54.149 107.193,53.593C107.193,53.039 107.643,52.588 108.198,52.588C108.753,52.588 109.203,53.039 109.203,53.593Z" style="fill-rule:nonzero;"/>
    </g>
    <g transform="matrix(1.12229,0,0,1.26393,-37.425,33.0232)">
        <path d="M183.951,103.569L159.568,91.427L135.185,103.569L110.802,115.712L135.185,127.854L159.568,139.996L183.951,127.854L208.333,115.712L183.951,103.569Z" style="fill:rgb(6,82,128);fill-rule:nonzero;"/>
        <path d="M110.802,115.712L110.802,123.925L159.568,148.21L159.568,139.996L110.802,115.712Z" style="fill:rgb(5,70,109);fill-rule:nonzero;"/>
        <path d="M208.333,115.712L159.568,139.996L159.568,148.21L208.333,123.925L208.333,115.712Z" style="fill:rgb(1,56,88);fill-rule:nonzero;"/>
        <path d="M183.951,83.691L159.568,71.548L135.185,83.691L110.802,95.833L135.185,107.975L159.568,120.118L183.951,107.975L208.333,95.833L183.951,83.691Z" style="fill:rgb(28,132,201);fill-rule:nonzero;"/>
        <path d="M110.802,95.833L110.802,104.046L159.568,128.331L159.568,120.118L110.802,95.833Z" style="fill:rgb(25,119,182);fill-rule:nonzero;"/>
        <path d="M208.333,95.833L159.568,120.118L159.568,128.331L208.333,104.046L208.333,95.833Z" style="fill:rgb(16,103,162);fill-rule:nonzero;"/>
        <path d="M183.951,63.812L159.568,51.67L135.185,63.812L110.802,75.954L135.185,88.097L159.568,100.239L183.951,88.097L208.333,75.954L183.951,63.812Z" style="fill:rgb(52,178,227);fill-rule:nonzero;"/>
        <path d="M110.802,75.954L110.802,84.168L159.568,108.452L159.568,100.239L110.802,75.954Z" style="fill:rgb(48,163,208);fill-rule:nonzero;"/>
        <path d="M208.333,75.954L159.568,100.239L159.568,108.452L208.333,84.168L208.333,75.954Z" style="fill:rgb(36,145,187);fill-rule:nonzero;"/>
        <path d="M183.951,43.933L159.568,31.791L135.185,43.933L110.802,56.076L135.185,68.218L159.568,80.36L183.951,68.218L208.333,56.076L183.951,43.933Z" style="fill:rgb(100,209,218);fill-rule:nonzero;"/>
        <path d="M110.802,56.076L110.802,64.289L159.568,88.574L159.568,80.36L110.802,56.076Z" style="fill:rgb(91,191,199);fill-rule:nonzero;"/>
        <path d="M208.333,56.076L159.568,80.36L159.568,88.574L208.333,64.289L208.333,56.076Z" style="fill:rgb(75,171,179);fill-rule:nonzero;"/>
    </g>
    <g transform="matrix(1.69711,0,0,1.9113,51.8097,-492.721)">
        <text x="55.244px" y="266.731px" style="font-family:'VentiCF-Bold', 'Venti CF';font-weight:700;font-size:12px;">V<tspan x="63.776px " y="266.731px ">I</tspan>DE<tspan x="81.166px " y="266.731px ">O</tspan> UPL<tspan x="113.353px 121.763px " y="266.731px 266.731px ">OA</tspan>D</text>
    </g>
    <g transform="matrix(1.69711,0,0,1.9113,-85.0349,-271.695)">
        <text x="50.53px" y="219.102px" style="font-family:'VentiCF-ExtraBold', 'Venti CF';font-weight:800;font-size:12px;">Y<tspan x="57.679px " y="219.102px ">O</tspan>UR</text>
        <text x="50.53px" y="231.102px" style="font-family:'VentiCF-ExtraBold', 'Venti CF';font-weight:800;font-size:12px;">SITE</text>
    </g>
    <g transform="matrix(1.69711,0,0,1.9113,-43.1795,-193.891)">
        <text x="301.418px" y="133.905px" style="font-family:'VentiCF-Black', 'Venti CF';font-weight:900;font-size:12px;">PROC<tspan x="333.574px " y="133.905px ">E</tspan>SSING</text>
        <text x="301.418px" y="145.905px" style="font-family:'VentiCF-Black', 'Venti CF';font-weight:900;font-size:12px;">VIDE<tspan x="327.96px " y="145.905px ">O</tspan></text>
        <text x="301.418px" y="157.905px" style="font-family:'VentiCF-Black', 'Venti CF';font-weight:900;font-size:12px;">W<tspan x="312.259px 319.672px " y="157.905px 157.905px ">AT</tspan>ERM<tspan x="350.557px " y="157.905px ">A</tspan>RK</text>
    </g>
    <g transform="matrix(1.69711,0,0,1.9113,125.577,-271.128)">
        <text x="55.244px" y="266.731px" style="font-family:'VentiCF-Bold', 'Venti CF';font-weight:700;font-size:12px;">V<tspan x="63.776px " y="266.731px ">I</tspan>DE<tspan x="81.166px " y="266.731px ">O</tspan> DO<tspan x="109.682px " y="266.731px ">W</tspan>NL<tspan x="136.082px 144.492px " y="266.731px 266.731px ">OA</tspan>D</text>
    </g>
</svg>
